<svg width="156" height="37" viewBox="0 0 156 37" fill="none" xmlns="http://www.w3.org/2000/svg">
<path d="M10.3812 36.0141C7.06123 36.0141 4.51623 35.4461 2.74523 34.3101C1.00523 33.1421 0.13623 31.4371 0.13623 29.1961C0.13623 28.0601 0.516227 27.1281 1.27423 26.4021C2.06523 25.6451 3.07723 25.2661 4.31023 25.2661C5.03723 25.2981 5.59023 25.4861 5.97023 25.8341C6.35023 26.1501 6.54023 26.4501 6.54023 26.7341C6.54023 26.7651 6.38123 26.8761 6.06523 27.0651C5.74923 27.2551 5.46523 27.5391 5.21123 27.9171C4.95823 28.2971 4.83123 28.8171 4.83123 29.4801C4.83123 30.9641 5.27523 32.1161 6.16023 32.9371C7.07723 33.7261 8.48423 34.1201 10.3812 34.1201C11.6782 34.1201 12.8162 33.8681 13.7972 33.3631C14.7772 32.8581 15.5202 32.1951 16.0262 31.3741C16.5632 30.5221 16.8322 29.6381 16.8322 28.7221C16.8322 27.5861 16.5002 26.6081 15.8362 25.7871C15.1913 24.9555 14.3848 24.2629 13.4652 23.7511C12.5152 23.1831 11.2192 22.5351 9.57523 21.8091C7.67823 20.9571 6.14523 20.1841 4.97523 19.4891C3.79952 18.7902 2.78144 17.8552 1.98523 16.7431C1.16423 15.5751 0.753227 14.1391 0.753227 12.4341C0.753227 9.6881 1.68523 7.6361 3.55123 6.2791C5.44923 4.9211 7.93123 4.2431 10.9982 4.2431C13.4012 4.2431 15.4882 4.7481 17.2592 5.7581C19.0622 6.7681 19.9632 8.2521 19.9632 10.2081C19.9632 11.3451 19.5672 12.2921 18.7772 13.0501C18.0182 13.7761 17.0222 14.1391 15.7892 14.1391C15.0612 14.1071 14.5082 13.9331 14.1292 13.6181C13.7492 13.2711 13.5592 12.9551 13.5592 12.6711C13.5592 12.6391 13.7652 12.5291 14.1762 12.3391C14.6192 12.1501 14.9982 11.8661 15.3142 11.4871C15.6622 11.1081 15.8362 10.5871 15.8362 9.92509C15.8362 8.75709 15.3782 7.8411 14.4612 7.1781C13.5752 6.5151 12.4372 6.1841 11.0452 6.1841C9.11723 6.1841 7.64623 6.6421 6.63523 7.5571C5.65423 8.4411 5.16423 9.54609 5.16423 10.8721C5.16423 11.9761 5.46423 12.9081 6.06523 13.6651C6.66523 14.3911 7.63023 15.1171 8.95823 15.8431C10.1098 16.4486 11.2804 17.0172 12.4682 17.5481C14.4922 18.4631 16.0892 19.3001 17.2592 20.0581C18.4639 20.8188 19.4845 21.8377 20.2472 23.0411C21.0692 24.2711 21.4812 25.8031 21.4812 27.6331C21.4812 29.2121 20.9752 30.6481 19.9632 31.9431C18.9832 33.2051 17.6382 34.1991 15.9312 34.9251C14.2552 35.6511 12.4052 36.0151 10.3812 36.0151V36.0141ZM34.3942 35.6361C32.2442 35.6361 30.5362 34.9881 29.2712 33.6941C28.0062 32.4001 27.3742 30.6951 27.3742 28.5801V19.8201C27.3742 19.0001 27.3422 18.4001 27.2792 18.0211C27.2482 17.6431 27.0582 17.3111 26.7092 17.0271C26.3622 16.7431 25.7772 16.6011 24.9552 16.6011C24.5752 16.6011 24.2912 16.5541 24.1012 16.4591C23.9112 16.3331 23.8172 16.0641 23.8172 15.6541C23.8172 15.4641 23.8802 15.2911 24.0072 15.1341C24.1332 14.9441 24.3232 14.8341 24.5762 14.8021C26.5682 14.5171 28.2762 14.1071 29.6982 13.5701C30.1412 13.4131 30.5042 13.3181 30.7892 13.2861H30.9312C31.4372 13.2861 31.6912 13.5861 31.6912 14.1861V28.5331C31.6912 29.9851 32.1492 31.1061 33.0662 31.8951C33.9551 32.6425 35.083 33.0456 36.2442 33.0311C37.7302 33.0311 38.9942 32.6681 40.0382 31.9421C41.0822 31.2161 41.7782 30.4901 42.1252 29.7641V19.8211C42.1252 19.0001 42.0942 18.4011 42.0312 18.0211C41.9992 17.6431 41.8092 17.3111 41.4612 17.0271C41.1132 16.7431 40.5282 16.6011 39.7062 16.6011C39.3262 16.6011 39.0422 16.5541 38.8532 16.4591C38.6632 16.3331 38.5682 16.0641 38.5682 15.6541C38.5682 15.4641 38.6312 15.2911 38.7582 15.1341C38.8842 14.9441 39.0742 14.8341 39.3272 14.8021C41.3192 14.5171 43.0272 14.1071 44.4502 13.5701C44.8922 13.4131 45.2562 13.3181 45.5402 13.2861H45.6832C46.1892 13.2861 46.4422 13.5861 46.4422 14.1861V30.5701C46.4422 32.4331 47.6912 33.3641 50.1892 33.3641C50.7262 33.3641 50.9952 33.6641 50.9952 34.2641C50.9952 34.7051 50.7262 34.9741 50.1892 35.0681L42.5522 35.5891C42.3312 35.5891 42.2042 35.5101 42.1722 35.3531C42.1422 35.2261 42.1252 34.9901 42.1252 34.6431V31.9901H42.0312C41.3053 32.672 40.5617 33.3349 39.8012 33.9781C39.2322 34.4201 38.4892 34.7991 37.5712 35.1151C36.6862 35.4621 35.6272 35.6351 34.3942 35.6351V35.6361ZM53.5902 35.2101C53.4797 35.2096 53.3708 35.1836 53.2719 35.1342C53.1731 35.0848 53.0869 35.0132 53.0202 34.9251C52.8942 34.7361 52.8302 34.5151 52.8302 34.2631C52.8622 33.8531 52.9572 33.6151 53.1152 33.5531C53.2742 33.4581 53.5582 33.4101 53.9692 33.4101C54.7912 33.4101 55.3762 33.2681 55.7242 32.9841C56.0722 32.7001 56.2622 32.3681 56.2932 31.9901C56.3572 31.6101 56.3882 31.0111 56.3882 30.1901V19.3471C56.3882 18.5271 56.3572 17.9271 56.2932 17.5471C56.2622 17.1691 56.0722 16.8371 55.7242 16.5541C55.3762 16.2701 54.7912 16.1271 53.9692 16.1271C53.5892 16.1271 53.3052 16.0801 53.1162 15.9851C52.9262 15.8591 52.8312 15.5911 52.8312 15.1801C52.8312 14.9911 52.8942 14.8171 53.0212 14.6601C53.1472 14.4701 53.3372 14.3601 53.5902 14.3281C55.6452 14.0121 57.3372 13.6021 58.6652 13.0971C59.2032 12.9391 59.5662 12.8441 59.7562 12.8131H59.8982C60.4042 12.8131 60.6572 13.1131 60.6572 13.7131V16.6481H60.7992C61.9062 15.5431 63.0292 14.6751 64.1672 14.0441C65.3062 13.3811 66.3332 13.0501 67.2502 13.0501C68.2942 13.0501 69.1162 13.4441 69.7172 14.2331C70.3492 14.9911 70.6652 15.8751 70.6652 16.8851C70.6652 17.7691 70.3972 18.5581 69.8592 19.2521C69.3212 19.9471 68.5782 20.2941 67.6302 20.2941C67.2172 20.3013 66.8092 20.2036 66.4442 20.0101C66.1282 19.8201 65.9542 19.6631 65.9222 19.5371C65.9542 19.4741 66.1122 19.2841 66.3962 18.9681C66.6812 18.6211 66.8232 18.2271 66.8232 17.7851C66.8232 17.2161 66.6652 16.7591 66.3492 16.4121C66.0642 16.0641 65.6692 15.8911 65.1632 15.8911C64.6262 15.8911 63.9462 16.1591 63.1242 16.6961C62.3012 17.2011 61.4952 17.8481 60.7052 18.6371V30.1901C60.7052 31.0111 60.7362 31.6101 60.7992 31.9901C60.8632 32.3681 61.0682 32.7001 61.4162 32.9841C61.7642 33.2681 62.3492 33.4101 63.1712 33.4101H63.4562C63.7092 33.4101 63.8982 33.4581 64.0252 33.5521C64.1512 33.6471 64.2302 33.8841 64.2622 34.2621C64.2622 34.5151 64.1992 34.7361 64.0722 34.9251C63.9462 35.1151 63.7562 35.2101 63.5032 35.2101C61.8447 35.12 60.1842 35.0723 58.5232 35.0671C57.1002 35.0671 55.4562 35.1151 53.5902 35.2091V35.2101ZM127.257 35.6361C125.107 35.6361 123.194 35.1301 121.518 34.1201C119.842 33.0791 118.53 31.7211 117.581 30.0481C116.677 28.3928 116.204 26.5363 116.206 24.6501C116.206 22.2831 116.759 20.2311 117.866 18.4951C118.973 16.7271 120.38 15.3851 122.087 14.4701C123.795 13.5231 125.518 13.0501 127.257 13.0501C129.408 13.0501 131.321 13.5701 132.997 14.6121C134.641 15.5888 135.986 16.9971 136.886 18.6841C137.823 20.3112 138.314 22.1567 138.309 24.0341C138.309 26.4021 137.74 28.4701 136.602 30.2381C135.495 31.9741 134.088 33.3151 132.38 34.2621C130.673 35.1781 128.965 35.6361 127.257 35.6361ZM127.257 33.8841C129.408 33.8841 130.973 32.9681 131.953 31.1371C132.965 29.3071 133.471 26.9391 133.471 24.0351C133.471 21.3201 132.949 19.1111 131.906 17.4051C130.894 15.6701 129.344 14.8021 127.257 14.8021C125.076 14.8021 123.495 15.7021 122.514 17.5011C121.534 19.3001 121.044 21.6511 121.044 24.5561C121.044 27.2701 121.55 29.5121 122.562 31.2791C123.574 33.0161 125.139 33.8841 127.257 33.8841ZM150.261 35.8721C148.711 35.8721 147.383 35.3041 146.276 34.1681C145.17 33.0311 144.616 31.4061 144.616 29.2911V15.3701L141.865 15.4651C141.773 15.4658 141.682 15.4448 141.6 15.4036C141.517 15.3624 141.446 15.3022 141.391 15.2281C141.267 15.0468 141.201 14.832 141.201 14.6121C141.201 14.3281 141.249 14.0921 141.343 13.9021C141.47 13.6811 141.644 13.5551 141.865 13.5231C142.972 13.3031 143.826 12.9551 144.427 12.4821C145.059 11.9761 145.518 11.4401 145.802 10.8721C146.087 10.2721 146.435 9.3721 146.846 8.1721C147.004 7.7621 147.352 7.5571 147.889 7.5571C148.11 7.5571 148.332 7.6201 148.553 7.7471C148.774 7.84109 148.885 7.99909 148.885 8.22009L148.553 13.6181L154.103 13.2861H154.198C154.609 13.2861 154.814 13.5861 154.814 14.1861C154.814 14.5331 154.751 14.8651 154.624 15.1801C154.53 15.4651 154.403 15.6071 154.245 15.6071L148.933 15.4651V29.8591C148.933 30.9011 149.138 31.7691 149.549 32.4631C149.992 33.1581 150.703 33.5051 151.684 33.5051C152.664 33.5051 153.534 33.3311 154.292 32.9841C154.704 32.8261 154.956 32.7471 155.051 32.7471C155.273 32.7471 155.447 32.8421 155.573 33.0311C155.7 33.1891 155.826 33.4111 155.953 33.6941C155.987 33.7685 156.003 33.8495 156 33.9311C156 34.0571 155.905 34.1991 155.715 34.3571C154.798 34.9571 153.929 35.3521 153.107 35.5411C152.316 35.7611 151.367 35.8721 150.261 35.8721ZM73.5972 34.9251C73.7232 35.1151 73.9132 35.2091 74.1662 35.2091C75.8091 35.1189 77.4539 35.0716 79.0992 35.0671C81.2182 35.0671 83.1942 35.1151 85.0282 35.2091C85.1325 35.2115 85.2355 35.1865 85.3271 35.1367C85.4187 35.0868 85.4956 35.0139 85.5502 34.9251C85.6762 34.7351 85.7392 34.5151 85.7392 34.2621C85.7082 33.8841 85.6292 33.6471 85.5022 33.5521C85.4072 33.4581 85.2182 33.4101 84.9332 33.4101H84.6482C83.6052 33.4101 82.8622 33.3311 82.4192 33.1731C81.9762 33.0161 81.6762 32.7311 81.5182 32.3211C81.3602 31.8791 81.2812 31.1691 81.2812 30.1911V15.4631H86.3092C86.4195 15.4626 86.5282 15.4367 86.6268 15.3874C86.7255 15.3382 86.8115 15.2669 86.8782 15.1791C87.0362 14.9901 87.1152 14.7691 87.1152 14.5161C87.0832 14.1381 86.9882 13.9011 86.8302 13.8061C86.7042 13.6801 86.4982 13.6161 86.2142 13.6161H81.2812V10.7761C81.2812 9.26109 81.3442 7.9351 81.4702 6.7981C81.5883 5.65664 81.9612 4.55626 82.5612 3.5781C83.1622 2.6001 84.0952 2.1111 85.3602 2.1111C85.5052 2.1111 85.6462 2.1191 85.7822 2.1361C85.7644 1.60562 85.7993 1.07469 85.8862 0.551095C85.8216 0.549314 85.7569 0.548315 85.6922 0.548096C82.9092 0.611096 80.7432 1.6681 79.1942 3.7211C77.6762 5.7411 76.9172 8.3771 76.9172 11.6281V13.6171H74.0712C73.6602 13.6171 73.3752 13.6641 73.2172 13.7591C73.0592 13.8221 72.9642 14.0751 72.9332 14.5161C72.9332 14.7691 72.9962 14.9901 73.1222 15.1791C73.2812 15.3691 73.4862 15.4641 73.7392 15.4641H76.9172V30.1901C76.9172 31.0431 76.8852 31.6581 76.8222 32.0371C76.7912 32.3841 76.6012 32.7001 76.2532 32.9841C75.9052 33.2681 75.3202 33.4101 74.4982 33.4101C74.0872 33.4101 73.8022 33.4581 73.6442 33.5521C73.5182 33.6151 73.4392 33.8521 73.4072 34.2621C73.4072 34.5151 73.4702 34.7361 73.5972 34.9251Z" fill="#9C9C9C"/>
</svg>
